<svg width="73" height="73" viewBox="0 0 73 73" fill="none" xmlns="http://www.w3.org/2000/svg">
<path d="M36.5 33.4584C40.5335 33.4584 44.4018 35.0607 47.2539 37.9128C50.106 40.7649 51.7083 44.6332 51.7083 48.6667V66.9167H45.625V48.6667C45.6251 46.3392 44.7358 44.0996 43.1391 42.4062C41.5424 40.7127 39.3588 39.6935 37.0353 39.5569L36.5 39.5417C34.1725 39.5416 31.9329 40.4309 30.2395 42.0276C28.546 43.6244 27.5268 45.8079 27.3902 48.1314L27.375 48.6667V66.9167H21.2917V48.6667C21.2917 44.6332 22.894 40.7649 25.7461 37.9128C28.5982 35.0607 32.4665 33.4584 36.5 33.4584ZM16.7292 42.5834C17.5778 42.5834 18.4021 42.6838 19.1929 42.8693C18.6729 44.4175 18.3649 46.029 18.2774 47.6599L18.25 48.6667V48.9283C17.9004 48.8032 17.5367 48.7215 17.1672 48.685L16.7292 48.6667C15.595 48.6668 14.5015 49.0893 13.6619 49.8518C12.8223 50.6143 12.2968 51.6623 12.188 52.7912L12.1667 53.2292V66.9167H6.08334V53.2292C6.08334 50.4058 7.20495 47.6979 9.20143 45.7015C11.1979 43.705 13.9057 42.5834 16.7292 42.5834ZM56.2708 42.5834C59.0943 42.5834 61.8021 43.705 63.7986 45.7015C65.7951 47.6979 66.9167 50.4058 66.9167 53.2292V66.9167H60.8333V53.2292C60.8333 52.095 60.4108 51.0015 59.6483 50.1619C58.8857 49.3223 57.8378 48.7969 56.7088 48.688L56.2708 48.6667C55.7385 48.6667 55.2275 48.758 54.75 48.9252V48.6667C54.75 46.641 54.4215 44.6943 53.8101 42.8754C54.5979 42.6838 55.4222 42.5834 56.2708 42.5834ZM16.7292 24.3334C18.7459 24.3334 20.6801 25.1345 22.1061 26.5606C23.5322 27.9866 24.3333 29.9208 24.3333 31.9375C24.3333 33.9543 23.5322 35.8884 22.1061 37.3145C20.6801 38.7406 18.7459 39.5417 16.7292 39.5417C14.7124 39.5417 12.7783 38.7406 11.3522 37.3145C9.92615 35.8884 9.125 33.9543 9.125 31.9375C9.125 29.9208 9.92615 27.9866 11.3522 26.5606C12.7783 25.1345 14.7124 24.3334 16.7292 24.3334ZM56.2708 24.3334C58.2876 24.3334 60.2217 25.1345 61.6478 26.5606C63.0739 27.9866 63.875 29.9208 63.875 31.9375C63.875 33.9543 63.0739 35.8884 61.6478 37.3145C60.2217 38.7406 58.2876 39.5417 56.2708 39.5417C54.2541 39.5417 52.3199 38.7406 50.8939 37.3145C49.4678 35.8884 48.6667 33.9543 48.6667 31.9375C48.6667 29.9208 49.4678 27.9866 50.8939 26.5606C52.3199 25.1345 54.2541 24.3334 56.2708 24.3334ZM16.7292 30.4167C16.3258 30.4167 15.939 30.5769 15.6538 30.8621C15.3686 31.1474 15.2083 31.5342 15.2083 31.9375C15.2083 32.3409 15.3686 32.7277 15.6538 33.0129C15.939 33.2981 16.3258 33.4584 16.7292 33.4584C17.1325 33.4584 17.5193 33.2981 17.8046 33.0129C18.0898 32.7277 18.25 32.3409 18.25 31.9375C18.25 31.5342 18.0898 31.1474 17.8046 30.8621C17.5193 30.5769 17.1325 30.4167 16.7292 30.4167ZM56.2708 30.4167C55.8675 30.4167 55.4807 30.5769 55.1954 30.8621C54.9102 31.1474 54.75 31.5342 54.75 31.9375C54.75 32.3409 54.9102 32.7277 55.1954 33.0129C55.4807 33.2981 55.8675 33.4584 56.2708 33.4584C56.6742 33.4584 57.061 33.2981 57.3462 33.0129C57.6314 32.7277 57.7917 32.3409 57.7917 31.9375C57.7917 31.5342 57.6314 31.1474 57.3462 30.8621C57.061 30.5769 56.6742 30.4167 56.2708 30.4167ZM36.5 6.08337C39.7268 6.08337 42.8214 7.36522 45.1031 9.64691C47.3848 11.9286 48.6667 15.0232 48.6667 18.25C48.6667 21.4768 47.3848 24.5715 45.1031 26.8532C42.8214 29.1349 39.7268 30.4167 36.5 30.4167C33.2732 30.4167 30.1786 29.1349 27.8969 26.8532C25.6152 24.5715 24.3333 21.4768 24.3333 18.25C24.3333 15.0232 25.6152 11.9286 27.8969 9.64691C30.1786 7.36522 33.2732 6.08337 36.5 6.08337ZM36.5 12.1667C34.8866 12.1667 33.3393 12.8076 32.1984 13.9485C31.0576 15.0893 30.4167 16.6366 30.4167 18.25C30.4167 19.8634 31.0576 21.4108 32.1984 22.5516C33.3393 23.6925 34.8866 24.3334 36.5 24.3334C38.1134 24.3334 39.6607 23.6925 40.8016 22.5516C41.9424 21.4108 42.5833 19.8634 42.5833 18.25C42.5833 16.6366 41.9424 15.0893 40.8016 13.9485C39.6607 12.8076 38.1134 12.1667 36.5 12.1667Z" fill="#4B4444"/>
</svg>
