<svg width="73" height="73" viewBox="0 0 73 73" fill="none" xmlns="http://www.w3.org/2000/svg">
<path d="M36.5 9.12496C34.0799 9.12496 31.7589 10.0863 30.0477 11.7976C28.3364 13.5089 27.375 15.8299 27.375 18.25V30.4166C27.375 32.8367 28.3364 35.1577 30.0477 36.869C31.7589 38.5802 34.0799 39.5416 36.5 39.5416C38.9201 39.5416 41.2411 38.5802 42.9524 36.869C44.6636 35.1577 45.625 32.8367 45.625 30.4166V18.25C45.625 15.8299 44.6636 13.5089 42.9524 11.7976C41.2411 10.0863 38.9201 9.12496 36.5 9.12496ZM36.5 3.04163C38.4972 3.04163 40.4748 3.435 42.32 4.19929C44.1651 4.96358 45.8417 6.08382 47.2539 7.49604C48.6661 8.90827 49.7864 10.5848 50.5507 12.43C51.315 14.2751 51.7083 16.2528 51.7083 18.25V30.4166C51.7083 34.4501 50.106 38.3184 47.2539 41.1705C44.4018 44.0227 40.5335 45.625 36.5 45.625C32.4665 45.625 28.5982 44.0227 25.7461 41.1705C22.894 38.3184 21.2917 34.4501 21.2917 30.4166V18.25C21.2917 14.2165 22.894 10.3482 25.7461 7.49604C28.5982 4.64393 32.4665 3.04163 36.5 3.04163ZM9.2923 33.4583H15.4213C16.1582 38.522 18.6937 43.1511 22.5638 46.4987C26.4339 49.8463 31.3799 51.6887 36.497 51.6887C41.614 51.6887 46.56 49.8463 50.4301 46.4987C54.3002 43.1511 56.8357 38.522 57.5727 33.4583H63.7047C63.0131 39.629 60.2451 45.3815 55.8548 49.7724C51.4644 54.1633 45.7123 56.932 39.5417 57.6243V69.9583H33.4583V57.6243C27.2872 56.9326 21.5343 54.1642 17.1434 49.7733C12.7524 45.3823 9.98401 39.6294 9.2923 33.4583Z" fill="#4B4444"/>
</svg>
