<svg width="288" height="32" viewBox="0 0 288 32" fill="none" xmlns="http://www.w3.org/2000/svg">
<path d="M19.8398 26.4844C19.8398 26.5104 19.8203 26.6406 19.7812 26.875C19.7552 27.1094 19.6576 27.3958 19.4883 27.7344C19.319 28.0599 19.0456 28.4115 18.668 28.7891C18.3034 29.1667 17.7891 29.5052 17.125 29.8047C16.7214 29.987 16.3503 30.1107 16.0117 30.1758C15.6862 30.2409 15.3737 30.2734 15.0742 30.2734C14.7227 30.2734 14.4102 30.2344 14.1367 30.1562C13.8633 30.0781 13.6289 29.987 13.4336 29.8828C13.2513 29.7786 13.1081 29.6875 13.0039 29.6094C12.9128 29.5182 12.8607 29.4596 12.8477 29.4336L12.7109 29.3164L12.6719 29.1211C12.6458 28.5612 12.5938 28.0534 12.5156 27.5977C12.4375 27.1289 12.3203 26.6797 12.1641 26.25C12.0078 25.8073 11.806 25.3646 11.5586 24.9219C11.3242 24.4792 11.0443 23.9974 10.7188 23.4766L10.3281 23.0859V22.8711C10.3021 22.5326 10.263 22.1875 10.2109 21.8359C10.1719 21.4844 10.1133 21.1393 10.0352 20.8008C8.99349 21.569 8.11458 22.4479 7.39844 23.4375V23.8867C7.39844 24.5508 7.45052 25.2083 7.55469 25.8594C7.65885 26.5104 7.83464 27.168 8.08203 27.832L8.16016 28.0469L8.08203 28.2031C8.06901 28.2292 7.9974 28.3464 7.86719 28.5547C7.73698 28.75 7.52214 28.9714 7.22266 29.2188C6.92318 29.4531 6.51302 29.668 5.99219 29.8633C5.48438 30.0586 4.84635 30.1562 4.07812 30.1562C3.3099 30.1562 2.67188 30.0521 2.16406 29.8438C1.66927 29.6354 1.27214 29.4076 0.972656 29.1602C0.686198 28.8997 0.484375 28.6654 0.367188 28.457C0.25 28.2357 0.191406 28.112 0.191406 28.0859L0.113281 27.9297L0.191406 27.7148C0.490885 26.9987 0.71224 26.263 0.855469 25.5078C0.998698 24.7526 1.07031 23.9844 1.07031 23.2031C1.07031 22.6562 1.03776 22.1029 0.972656 21.543C0.920573 20.9831 0.822917 20.4036 0.679688 19.8047V19.5508C0.835938 18.9128 0.959635 18.2878 1.05078 17.6758C1.15495 17.0508 1.20703 16.4258 1.20703 15.8008C1.20703 15.1107 1.14844 14.4336 1.03125 13.7695C0.914062 13.1055 0.757812 12.4479 0.5625 11.7969L0.523438 11.6016L0.601562 11.4453C0.888021 10.7422 1.09635 10.0391 1.22656 9.33594C1.36979 8.61979 1.44141 7.91016 1.44141 7.20703C1.44141 6.63411 1.39583 6.06771 1.30469 5.50781C1.22656 4.9349 1.09635 4.35547 0.914062 3.76953L0.835938 3.51562L0.992188 3.32031C1.00521 3.30729 1.08333 3.22917 1.22656 3.08594C1.36979 2.92969 1.58464 2.76693 1.87109 2.59766C2.17057 2.41536 2.54167 2.25911 2.98438 2.12891C3.42708 1.98568 3.95443 1.91406 4.56641 1.91406C5.19141 1.91406 5.73177 1.9987 6.1875 2.16797C6.64323 2.32422 7.02083 2.5 7.32031 2.69531C7.63281 2.89062 7.86719 3.07292 8.02344 3.24219C8.17969 3.41146 8.26432 3.5026 8.27734 3.51562L8.47266 3.71094L8.35547 3.96484C8.12109 4.68099 7.9388 5.39062 7.80859 6.09375C7.69141 6.78385 7.63281 7.46094 7.63281 8.125C7.63281 8.67188 7.66536 9.20573 7.73047 9.72656C7.80859 10.2344 7.92578 10.7552 8.08203 11.2891V11.5625C8.00391 11.8229 7.9388 12.0833 7.88672 12.3438C7.83464 12.5911 7.77604 12.8385 7.71094 13.0859C8.21875 12.5 8.65495 11.888 9.01953 11.25C9.39714 10.612 9.72266 9.92839 9.99609 9.19922L10.0742 9.04297L10.2305 8.96484C11.4154 8.27474 12.4245 7.46094 13.2578 6.52344C14.1042 5.57292 14.7812 4.45312 15.2891 3.16406L15.4062 2.92969L15.6406 2.87109C15.6667 2.87109 15.7253 2.85807 15.8164 2.83203C15.9076 2.80599 16.0378 2.79297 16.207 2.79297C16.5456 2.79297 16.9818 2.87109 17.5156 3.02734C18.0625 3.18359 18.6484 3.50911 19.2734 4.00391C19.7552 4.39453 20.1263 4.79818 20.3867 5.21484C20.6471 5.61849 20.8359 5.99609 20.9531 6.34766C21.0833 6.6862 21.1549 6.97266 21.168 7.20703C21.194 7.42839 21.207 7.54557 21.207 7.55859V7.83203L20.9531 8.00781C19.8073 8.72396 18.8438 9.53776 18.0625 10.4492C17.2812 11.3477 16.6628 12.3698 16.207 13.5156L15.9922 13.7109C15.7188 13.9193 15.4518 14.1341 15.1914 14.3555C14.931 14.5638 14.6836 14.7786 14.4492 15C14.6706 15.9245 14.9766 16.7839 15.3672 17.5781C15.7708 18.3594 16.2721 19.1016 16.8711 19.8047L16.9688 20.0391C17.099 20.7031 17.2292 21.3086 17.3594 21.8555C17.4896 22.3893 17.6523 22.8906 17.8477 23.3594C18.056 23.8281 18.3034 24.2839 18.5898 24.7266C18.8763 25.1693 19.2409 25.6315 19.6836 26.1133L19.8398 26.2891V26.4844ZM41.4414 19.8047C41.5195 20.2344 41.5586 20.6315 41.5586 20.9961C41.5586 21.3997 41.5195 21.7643 41.4414 22.0898C41.3633 22.4023 41.2721 22.6758 41.168 22.9102C41.0768 23.1315 40.9857 23.3138 40.8945 23.457C40.8164 23.5872 40.7708 23.6589 40.7578 23.6719L40.6016 23.8867L40.3281 23.8477C40.1458 23.8216 39.9635 23.8086 39.7812 23.8086C39.599 23.8086 39.4167 23.8086 39.2344 23.8086C39.4167 24.4466 39.6445 25.0651 39.918 25.6641C40.1914 26.263 40.4974 26.8424 40.8359 27.4023L41.0508 27.7148L40.7969 28.0078C40.7839 28.0208 40.7122 28.0924 40.582 28.2227C40.4648 28.3398 40.2826 28.4831 40.0352 28.6523C39.7878 28.8086 39.4688 28.9779 39.0781 29.1602C38.7005 29.3424 38.2513 29.4922 37.7305 29.6094C37.4831 29.6745 37.2357 29.7266 36.9883 29.7656C36.7539 29.7917 36.5195 29.8047 36.2852 29.8047C35.9466 29.8047 35.6341 29.7786 35.3477 29.7266C35.0742 29.6745 34.8398 29.6159 34.6445 29.5508C34.4492 29.4727 34.293 29.4076 34.1758 29.3555C34.0716 29.3034 34.013 29.2773 34 29.2773L33.7266 29.1211L33.7656 28.8086C33.7656 28.6393 33.7721 28.4766 33.7852 28.3203C33.7982 28.1641 33.8047 28.0013 33.8047 27.832C33.8047 26.9336 33.7266 26.0417 33.5703 25.1562C33.5182 25.2083 33.4727 25.2344 33.4336 25.2344L33.1602 25.3125C32.3398 25.3125 31.5 25.3646 30.6406 25.4688C29.7812 25.5729 28.9284 25.7617 28.082 26.0352V26.6406C28.082 27.2005 28.1211 27.7604 28.1992 28.3203L28.2383 28.5156L28.1211 28.6719C28.1081 28.6849 28.043 28.7565 27.9258 28.8867C27.8086 29.0169 27.6263 29.1602 27.3789 29.3164C27.1315 29.4727 26.819 29.6159 26.4414 29.7461C26.0638 29.8633 25.6081 29.9219 25.0742 29.9219C24.0326 29.9219 23.2057 29.7721 22.5938 29.4727C21.9948 29.1732 21.5326 28.8346 21.207 28.457C20.8294 28.0273 20.5755 27.5391 20.4453 26.9922L20.4062 26.8359L20.5234 26.6797C21.1875 25.6641 21.6758 24.5833 21.9883 23.4375C22.3138 22.2786 22.4766 21.0286 22.4766 19.6875V19.0039L22.5547 18.7695C23.0625 17.7539 23.4336 16.7448 23.668 15.7422C23.9154 14.7266 24.0391 13.7044 24.0391 12.6758C24.0391 12.4154 24.0326 12.1549 24.0195 11.8945C24.0065 11.6341 23.987 11.3737 23.9609 11.1133L23.9219 10.918L24.0391 10.7617C25.2891 8.84766 25.9141 6.77734 25.9141 4.55078C25.9141 4.35547 25.9076 4.15365 25.8945 3.94531C25.8815 3.72396 25.862 3.5026 25.8359 3.28125V3.04688L26.0117 2.87109C26.0247 2.85807 26.0898 2.8125 26.207 2.73438C26.3372 2.64323 26.513 2.55208 26.7344 2.46094C26.9557 2.35677 27.2227 2.26562 27.5352 2.1875C27.8607 2.10938 28.2318 2.07031 28.6484 2.07031C29.4557 2.07031 30.1393 2.19401 30.6992 2.44141C31.2721 2.6888 31.7344 2.96224 32.0859 3.26172C32.4375 3.5612 32.6914 3.83464 32.8477 4.08203C33.0169 4.32943 33.1081 4.45964 33.1211 4.47266L33.2383 4.72656L33.1211 4.96094C33.069 5.01302 33.043 5.05208 33.043 5.07812H33.3164C33.8893 5.07812 34.3385 5.11719 34.6641 5.19531C35.0026 5.27344 35.1849 5.3125 35.2109 5.3125L35.4453 5.48828L35.4062 5.76172C35.3802 5.91797 35.3672 6.07422 35.3672 6.23047C35.3672 6.3737 35.3672 6.52344 35.3672 6.67969C35.3672 8.9974 35.9141 11.1198 37.0078 13.0469L37.0859 13.2812V13.8086C37.0859 14.4857 37.112 15.1367 37.1641 15.7617C37.2161 16.3737 37.3203 16.9596 37.4766 17.5195C37.737 17.4154 37.9909 17.3047 38.2383 17.1875C38.4857 17.0703 38.7266 16.9401 38.9609 16.7969L39.1562 16.6797L39.4102 16.7578C39.4232 16.7708 39.5078 16.8294 39.6641 16.9336C39.8333 17.0378 40.0221 17.207 40.2305 17.4414C40.4518 17.6758 40.6732 17.9883 40.8945 18.3789C41.1289 18.7565 41.3112 19.2318 41.4414 19.8047ZM30.9141 14.8047L30.6406 13.8867C30.3411 14.668 30.1198 15.4427 29.9766 16.2109C29.8333 16.9792 29.7617 17.7344 29.7617 18.4766V19.0039C30.3216 18.8086 30.8555 18.5807 31.3633 18.3203L31.6758 18.2422C31.7669 18.2682 31.8581 18.2878 31.9492 18.3008C32.0404 18.3138 32.125 18.3203 32.2031 18.3203C32.0599 17.7604 31.8776 17.194 31.6562 16.6211C31.4479 16.0352 31.2005 15.4297 30.9141 14.8047ZM50.875 12.168L50.8359 12.2852C50.4583 13.1706 50.1849 13.9779 50.0156 14.707C49.8464 15.4232 49.7617 16.1328 49.7617 16.8359C49.7617 17.2526 49.7878 17.6693 49.8398 18.0859C49.8919 18.5026 49.9701 18.9388 50.0742 19.3945L50.1133 19.5508L50.0352 19.7266C49.6576 20.4688 49.3646 21.1328 49.1562 21.7188C48.9609 22.2917 48.8438 22.8906 48.8047 23.5156C49.0651 23.4766 49.2995 23.431 49.5078 23.3789C49.7161 23.3268 49.918 23.2682 50.1133 23.2031C50.3216 23.125 50.5299 23.0469 50.7383 22.9688C50.9596 22.8906 51.207 22.806 51.4805 22.7148C51.5456 22.6888 51.6042 22.6693 51.6562 22.6562C51.7083 22.6302 51.7669 22.5977 51.832 22.5586L51.9883 22.4805L52.1641 22.5195C52.5807 22.6237 52.9779 22.6953 53.3555 22.7344C53.7331 22.7734 54.1042 22.793 54.4688 22.793H55.2305C55.2044 22.6758 55.1719 22.5586 55.1328 22.4414C55.1068 22.3112 55.0742 22.1745 55.0352 22.0312V21.7188C55.2174 21.1589 55.3477 20.651 55.4258 20.1953C55.5169 19.7396 55.5625 19.2904 55.5625 18.8477C55.5625 18.3398 55.4974 17.832 55.3672 17.3242C55.25 16.8164 55.0612 16.2305 54.8008 15.5664L54.7227 15.3125L54.8398 15.1172C54.8398 15.1042 54.9115 15.013 55.0547 14.8438C55.1979 14.6745 55.4193 14.4922 55.7188 14.2969C56.0312 14.0885 56.4284 13.8997 56.9102 13.7305C57.3919 13.5612 57.9648 13.4766 58.6289 13.4766C59.1367 13.4766 59.5859 13.5352 59.9766 13.6523C60.3802 13.7695 60.7188 13.9062 60.9922 14.0625C61.2656 14.2057 61.474 14.3424 61.6172 14.4727C61.7604 14.6029 61.8451 14.6745 61.8711 14.6875L62.0273 14.8438L61.9492 15.0781C61.806 15.638 61.6953 16.1458 61.6172 16.6016C61.5521 17.0443 61.5195 17.4674 61.5195 17.8711C61.5195 18.3659 61.5781 18.8477 61.6953 19.3164C61.8125 19.7852 61.9948 20.319 62.2422 20.918V21.1914C62.138 21.6992 62.0599 22.1745 62.0078 22.6172C61.9688 23.0599 61.9492 23.4701 61.9492 23.8477C61.9492 24.4336 62.0143 25.0065 62.1445 25.5664C62.2747 26.1263 62.4896 26.7513 62.7891 27.4414L62.8672 27.5977L62.8281 27.793C62.8151 27.806 62.7435 27.9297 62.6133 28.1641C62.4961 28.3854 62.2747 28.6328 61.9492 28.9062C61.6367 29.1797 61.207 29.4336 60.6602 29.668C60.1133 29.8893 59.4102 30 58.5508 30C58.1341 30 57.763 29.9609 57.4375 29.8828C57.112 29.8047 56.8255 29.7135 56.5781 29.6094C56.3438 29.4922 56.1419 29.3685 55.9727 29.2383C55.8034 29.0951 55.6667 28.9648 55.5625 28.8477C55.224 28.9518 54.8789 29.069 54.5273 29.1992C54.1888 29.3294 53.8372 29.4792 53.4727 29.6484L53.3164 29.7266L53.1992 29.6875C52.8997 29.6875 52.6068 29.6745 52.3203 29.6484C52.0339 29.6224 51.7539 29.6094 51.4805 29.6094C50.5039 29.6094 49.5534 29.7201 48.6289 29.9414C47.7044 30.1628 46.7995 30.5013 45.9141 30.957L45.7188 31.0352L45.5625 30.9961C45.6016 31.0091 45.5039 30.9701 45.2695 30.8789C45.0352 30.7878 44.7617 30.6185 44.4492 30.3711C44.1367 30.1367 43.8307 29.8112 43.5312 29.3945C43.2448 28.9648 43.069 28.418 43.0039 27.7539C42.6523 27.5586 42.3594 27.3503 42.125 27.1289C41.9036 26.8945 41.7214 26.6797 41.5781 26.4844C41.4479 26.2891 41.3568 26.1263 41.3047 25.9961C41.2526 25.8529 41.2266 25.7747 41.2266 25.7617L41.1875 25.5664L41.2656 25.3906C41.513 24.9479 41.7279 24.5312 41.9102 24.1406C42.0924 23.75 42.2422 23.3724 42.3594 23.0078C42.4766 22.6302 42.5612 22.2526 42.6133 21.875C42.6784 21.4844 42.7109 21.0612 42.7109 20.6055C42.7109 20.0716 42.6719 19.4727 42.5938 18.8086L42.6328 18.5547C42.9714 17.7344 43.2188 16.9727 43.375 16.2695C43.5443 15.5664 43.6289 14.8633 43.6289 14.1602C43.6289 13.7565 43.6029 13.3464 43.5508 12.9297C43.4987 12.5 43.4336 12.0573 43.3555 11.6016L43.3164 11.4062L43.3945 11.2891C43.694 10.7031 43.9414 10.1693 44.1367 9.6875C44.332 9.19271 44.4818 8.69792 44.5859 8.20312C44.3906 7.94271 44.2214 7.59766 44.0781 7.16797C43.9479 6.72526 43.8828 6.19141 43.8828 5.56641C43.8828 4.73307 43.987 4.05599 44.1953 3.53516C44.4167 3.0013 44.6576 2.58464 44.918 2.28516C45.1914 1.98568 45.4388 1.78385 45.6602 1.67969C45.8815 1.57552 46.0052 1.52344 46.0312 1.52344L46.2266 1.44531L46.4023 1.52344C47.0794 1.86198 47.763 2.10938 48.4531 2.26562C49.1432 2.40885 49.8724 2.48047 50.6406 2.48047C50.9531 2.48047 51.3177 2.48047 51.7344 2.48047C52.151 2.46745 52.5286 2.40234 52.8672 2.28516L53.043 2.24609L53.1992 2.32422C53.9674 2.66276 54.6641 2.92318 55.2891 3.10547C55.9271 3.27474 56.5781 3.35938 57.2422 3.35938C57.6458 3.35938 58.0495 3.33333 58.4531 3.28125C58.8698 3.21615 59.306 3.125 59.7617 3.00781L59.9961 2.96875L60.1523 3.125C60.1654 3.13802 60.237 3.20964 60.3672 3.33984C60.4974 3.47005 60.6276 3.66536 60.7578 3.92578C60.901 4.1862 61.0312 4.51823 61.1484 4.92188C61.2656 5.3125 61.3242 5.78125 61.3242 6.32812V6.64062C61.2852 7.22656 61.1745 7.74089 60.9922 8.18359C60.8229 8.61328 60.6406 8.97135 60.4453 9.25781C60.25 9.53125 60.0677 9.73958 59.8984 9.88281C59.7422 10.026 59.6576 10.1042 59.6445 10.1172L59.3906 10.2734L59.1562 10.1953C58.388 9.86979 57.6979 9.62891 57.0859 9.47266C56.487 9.31641 55.8815 9.23828 55.2695 9.23828C54.9049 9.23828 54.5404 9.26432 54.1758 9.31641C53.8112 9.36849 53.4206 9.44661 53.0039 9.55078L52.7109 9.51172C52.3333 9.44661 51.9883 9.375 51.6758 9.29688C51.3633 9.20573 51.0443 9.12109 50.7188 9.04297C50.6927 9.23828 50.6797 9.42708 50.6797 9.60938C50.6797 9.79167 50.6797 9.97396 50.6797 10.1562C50.6797 10.4427 50.6927 10.7357 50.7188 11.0352C50.7578 11.3346 50.8099 11.6536 50.875 11.9922V12.168ZM73.5703 4.08203L73.4531 4.31641C73.0885 5.16276 72.8216 5.99609 72.6523 6.81641C72.4961 7.6237 72.418 8.43099 72.418 9.23828C72.418 10.0195 72.4961 10.8073 72.6523 11.6016V11.875C72.3529 12.7344 72.125 13.5286 71.9688 14.2578C71.8125 14.987 71.7344 15.7031 71.7344 16.4062C71.7344 16.862 71.7669 17.3177 71.832 17.7734C71.8971 18.2292 72.0013 18.7044 72.1445 19.1992V19.5117C71.7799 20.293 71.513 21.0026 71.3438 21.6406C71.1875 22.2786 71.1094 22.9297 71.1094 23.5938C71.526 23.4896 71.9297 23.3659 72.3203 23.2227C72.7109 23.0664 73.1602 22.8971 73.668 22.7148L73.9805 22.6367C74.306 22.6758 74.612 22.7148 74.8984 22.7539C75.1979 22.7799 75.4909 22.793 75.7773 22.793C76.6497 22.793 77.4896 22.6758 78.2969 22.4414C78.2318 22.0638 78.1602 21.6797 78.082 21.2891C78.0039 20.8854 77.9062 20.4818 77.7891 20.0781L77.7305 19.8438C77.8346 19.362 77.9062 18.8867 77.9453 18.418C77.9974 17.9362 78.0234 17.4479 78.0234 16.9531C78.0234 16.1068 77.9453 15.2799 77.7891 14.4727C77.6328 13.6523 77.4049 12.8516 77.1055 12.0703V11.7578C77.3008 11.1589 77.4375 10.5664 77.5156 9.98047C77.6068 9.39453 77.6523 8.80208 77.6523 8.20312C77.6523 7.51302 77.5872 6.82943 77.457 6.15234C77.3398 5.47526 77.151 4.78516 76.8906 4.08203L76.7734 3.84766L76.9492 3.59375C76.9622 3.58073 77.0404 3.48958 77.1836 3.32031C77.3268 3.15104 77.5547 2.96875 77.8672 2.77344C78.1797 2.57812 78.5768 2.40234 79.0586 2.24609C79.5534 2.07682 80.1523 1.99219 80.8555 1.99219C81.4023 1.99219 81.8776 2.05729 82.2812 2.1875C82.6979 2.31771 83.0495 2.46094 83.3359 2.61719C83.6224 2.77344 83.8372 2.92318 83.9805 3.06641C84.1237 3.19661 84.2018 3.26823 84.2148 3.28125L84.4102 3.47656L84.332 3.76953C84.0195 4.92839 83.8633 6.0612 83.8633 7.16797C83.8633 8.52214 84.1042 9.82422 84.5859 11.0742V11.3672C84.3385 12.4479 84.2148 13.4961 84.2148 14.5117C84.2148 16.1523 84.5339 17.7279 85.1719 19.2383L85.25 19.3945L85.2109 19.5508C84.8984 20.6836 84.7422 21.7904 84.7422 22.8711C84.7422 23.6784 84.8203 24.4727 84.9766 25.2539C85.1458 26.0352 85.3997 26.8164 85.7383 27.5977L85.8164 27.7539L85.7383 27.9688C85.7253 27.9818 85.6536 28.1055 85.5234 28.3398C85.4062 28.5612 85.1849 28.8086 84.8594 29.082C84.5469 29.3555 84.1172 29.6029 83.5703 29.8242C83.0234 30.0456 82.3203 30.1562 81.4609 30.1562C80.9271 30.1562 80.4648 30.1042 80.0742 30C79.6966 29.8958 79.3711 29.7656 79.0977 29.6094C78.8242 29.4531 78.6029 29.2904 78.4336 29.1211C78.2773 28.9518 78.1536 28.8021 78.0625 28.6719C77.6589 28.8021 77.2617 28.9518 76.8711 29.1211C76.4935 29.2773 76.1029 29.4661 75.6992 29.6875L75.4648 29.7266C74.8008 29.7266 74.1628 29.7396 73.5508 29.7656C72.9518 29.7786 72.3659 29.8307 71.793 29.9219C71.2331 30 70.6732 30.1302 70.1133 30.3125C69.5664 30.5078 69.013 30.7747 68.4531 31.1133L68.2969 31.2305L68.1016 31.1914C68.0234 31.1523 67.8802 31.0938 67.6719 31.0156C67.4766 30.9505 67.2487 30.8138 66.9883 30.6055C66.7409 30.4102 66.4805 30.1237 66.207 29.7461C65.9336 29.3555 65.6862 28.8281 65.4648 28.1641C65.1003 27.9948 64.8008 27.806 64.5664 27.5977C64.332 27.3763 64.1432 27.168 64 26.9727C63.8698 26.7773 63.7721 26.6146 63.707 26.4844C63.6549 26.3411 63.6289 26.2565 63.6289 26.2305L63.5703 26.0352L63.668 25.8789C64.0846 25.0456 64.3906 24.2773 64.5859 23.5742C64.7943 22.8581 64.8984 22.0768 64.8984 21.2305C64.8984 20.8919 64.8789 20.5404 64.8398 20.1758C64.8138 19.8112 64.7682 19.4206 64.7031 19.0039V18.7695C64.9766 17.9883 65.1849 17.2461 65.3281 16.543C65.4714 15.8398 65.543 15.1367 65.543 14.4336C65.543 13.9779 65.5039 13.5156 65.4258 13.0469C65.3607 12.5781 65.263 12.0833 65.1328 11.5625L65.0938 11.4062L65.1719 11.2305C65.5755 10.4102 65.875 9.58984 66.0703 8.76953C66.2786 7.94922 66.3828 7.10286 66.3828 6.23047C66.3828 5.38411 66.2721 4.50521 66.0508 3.59375L65.9727 3.32031L66.1875 3.16406C66.2005 3.15104 66.2721 3.07943 66.4023 2.94922C66.5326 2.81901 66.7279 2.6888 66.9883 2.55859C67.2487 2.41536 67.5742 2.28516 67.9648 2.16797C68.3685 2.05078 68.8372 1.99219 69.3711 1.99219C70.0482 1.99219 70.6406 2.08984 71.1484 2.28516C71.6562 2.46745 72.0729 2.67578 72.3984 2.91016C72.737 3.13151 72.9844 3.33984 73.1406 3.53516C73.3099 3.73047 73.401 3.83464 73.4141 3.84766L73.5703 4.08203ZM106.871 6.23047L106.695 6.44531C104.911 8.46354 103.902 10.6901 103.668 13.125V13.2422L103.551 13.3594C102.613 14.5443 101.904 15.7422 101.422 16.9531C100.94 18.1641 100.66 19.4206 100.582 20.7227V20.8789L100.465 20.9961C99.5273 22.0638 98.7982 23.2161 98.2773 24.4531C97.7565 25.6901 97.457 27.0182 97.3789 28.4375V28.6328L97.2227 28.7695C97.2096 28.7956 97.151 28.8477 97.0469 28.9258C96.9557 29.0039 96.8125 29.0885 96.6172 29.1797C96.4349 29.2578 96.207 29.3359 95.9336 29.4141C95.6602 29.4792 95.3411 29.5117 94.9766 29.5117C94.6771 29.5117 94.3451 29.4792 93.9805 29.4141C93.6289 29.349 93.2448 29.2253 92.8281 29.043C92.099 28.7565 91.5391 28.4245 91.1484 28.0469C90.7708 27.6693 90.4909 27.3112 90.3086 26.9727C90.1393 26.6341 90.0417 26.3411 90.0156 26.0938C89.9896 25.8464 89.9766 25.7096 89.9766 25.6836L90.1523 25.3125C91.0768 24.375 91.819 23.3203 92.3789 22.1484C92.9388 20.9766 93.3424 19.6615 93.5898 18.2031V18.1641C93.3815 17.7995 93.1471 17.4219 92.8867 17.0312C92.6263 16.6406 92.3464 16.263 92.0469 15.8984C91.7604 15.5339 91.4609 15.2018 91.1484 14.9023C90.849 14.5898 90.543 14.3294 90.2305 14.1211L90.0938 14.043L90.0547 13.8477C89.651 12.5326 89.0846 11.3607 88.3555 10.332C87.6393 9.29036 86.7279 8.36589 85.6211 7.55859L85.4258 7.40234V7.16797C85.4258 7.20703 85.4518 7.12891 85.5039 6.93359C85.543 6.72526 85.6276 6.46484 85.7578 6.15234C85.875 5.83984 86.0443 5.49479 86.2656 5.11719C86.487 4.73958 86.7734 4.39453 87.125 4.08203C87.4896 3.75651 87.9258 3.48307 88.4336 3.26172C88.9414 3.04036 89.5404 2.92969 90.2305 2.92969C90.4909 2.92969 90.6992 2.94922 90.8555 2.98828C91.0247 3.02734 91.1224 3.04688 91.1484 3.04688L91.3828 3.125L91.4609 3.35938C92.3333 5.88542 93.7461 7.87109 95.6992 9.31641L95.8555 9.55078C95.9466 9.77214 96.0378 10.013 96.1289 10.2734C96.2331 10.5208 96.3568 10.7617 96.5 10.9961C96.5 10.957 96.5065 10.918 96.5195 10.8789C96.5326 10.8398 96.5391 10.7878 96.5391 10.7227V10.5664L96.6562 10.4492C97.6328 9.43359 98.3815 8.35286 98.9023 7.20703C99.4232 6.0612 99.7552 4.80469 99.8984 3.4375V3.16406L100.152 3.04688C100.178 3.02083 100.328 2.95573 100.602 2.85156C100.888 2.73438 101.298 2.67578 101.832 2.67578C102.47 2.67578 103.036 2.76042 103.531 2.92969C104.026 3.08594 104.456 3.29427 104.82 3.55469C105.198 3.80208 105.51 4.06901 105.758 4.35547C106.018 4.64193 106.227 4.90885 106.383 5.15625C106.539 5.40365 106.65 5.61198 106.715 5.78125C106.793 5.9375 106.832 6.00911 106.832 5.99609L106.871 6.23047ZM125.895 19.8047C125.973 20.2344 126.012 20.6315 126.012 20.9961C126.012 21.3997 125.973 21.7643 125.895 22.0898C125.816 22.4023 125.725 22.6758 125.621 22.9102C125.53 23.1315 125.439 23.3138 125.348 23.457C125.27 23.5872 125.224 23.6589 125.211 23.6719L125.055 23.8867L124.781 23.8477C124.599 23.8216 124.417 23.8086 124.234 23.8086C124.052 23.8086 123.87 23.8086 123.688 23.8086C123.87 24.4466 124.098 25.0651 124.371 25.6641C124.645 26.263 124.951 26.8424 125.289 27.4023L125.504 27.7148L125.25 28.0078C125.237 28.0208 125.165 28.0924 125.035 28.2227C124.918 28.3398 124.736 28.4831 124.488 28.6523C124.241 28.8086 123.922 28.9779 123.531 29.1602C123.154 29.3424 122.704 29.4922 122.184 29.6094C121.936 29.6745 121.689 29.7266 121.441 29.7656C121.207 29.7917 120.973 29.8047 120.738 29.8047C120.4 29.8047 120.087 29.7786 119.801 29.7266C119.527 29.6745 119.293 29.6159 119.098 29.5508C118.902 29.4727 118.746 29.4076 118.629 29.3555C118.525 29.3034 118.466 29.2773 118.453 29.2773L118.18 29.1211L118.219 28.8086C118.219 28.6393 118.225 28.4766 118.238 28.3203C118.251 28.1641 118.258 28.0013 118.258 27.832C118.258 26.9336 118.18 26.0417 118.023 25.1562C117.971 25.2083 117.926 25.2344 117.887 25.2344L117.613 25.3125C116.793 25.3125 115.953 25.3646 115.094 25.4688C114.234 25.5729 113.382 25.7617 112.535 26.0352V26.6406C112.535 27.2005 112.574 27.7604 112.652 28.3203L112.691 28.5156L112.574 28.6719C112.561 28.6849 112.496 28.7565 112.379 28.8867C112.262 29.0169 112.079 29.1602 111.832 29.3164C111.585 29.4727 111.272 29.6159 110.895 29.7461C110.517 29.8633 110.061 29.9219 109.527 29.9219C108.486 29.9219 107.659 29.7721 107.047 29.4727C106.448 29.1732 105.986 28.8346 105.66 28.457C105.283 28.0273 105.029 27.5391 104.898 26.9922L104.859 26.8359L104.977 26.6797C105.641 25.6641 106.129 24.5833 106.441 23.4375C106.767 22.2786 106.93 21.0286 106.93 19.6875V19.0039L107.008 18.7695C107.516 17.7539 107.887 16.7448 108.121 15.7422C108.368 14.7266 108.492 13.7044 108.492 12.6758C108.492 12.4154 108.486 12.1549 108.473 11.8945C108.46 11.6341 108.44 11.3737 108.414 11.1133L108.375 10.918L108.492 10.7617C109.742 8.84766 110.367 6.77734 110.367 4.55078C110.367 4.35547 110.361 4.15365 110.348 3.94531C110.335 3.72396 110.315 3.5026 110.289 3.28125V3.04688L110.465 2.87109C110.478 2.85807 110.543 2.8125 110.66 2.73438C110.79 2.64323 110.966 2.55208 111.188 2.46094C111.409 2.35677 111.676 2.26562 111.988 2.1875C112.314 2.10938 112.685 2.07031 113.102 2.07031C113.909 2.07031 114.592 2.19401 115.152 2.44141C115.725 2.6888 116.188 2.96224 116.539 3.26172C116.891 3.5612 117.145 3.83464 117.301 4.08203C117.47 4.32943 117.561 4.45964 117.574 4.47266L117.691 4.72656L117.574 4.96094C117.522 5.01302 117.496 5.05208 117.496 5.07812H117.77C118.342 5.07812 118.792 5.11719 119.117 5.19531C119.456 5.27344 119.638 5.3125 119.664 5.3125L119.898 5.48828L119.859 5.76172C119.833 5.91797 119.82 6.07422 119.82 6.23047C119.82 6.3737 119.82 6.52344 119.82 6.67969C119.82 8.9974 120.367 11.1198 121.461 13.0469L121.539 13.2812V13.8086C121.539 14.4857 121.565 15.1367 121.617 15.7617C121.669 16.3737 121.773 16.9596 121.93 17.5195C122.19 17.4154 122.444 17.3047 122.691 17.1875C122.939 17.0703 123.18 16.9401 123.414 16.7969L123.609 16.6797L123.863 16.7578C123.876 16.7708 123.961 16.8294 124.117 16.9336C124.286 17.0378 124.475 17.207 124.684 17.4414C124.905 17.6758 125.126 17.9883 125.348 18.3789C125.582 18.7565 125.764 19.2318 125.895 19.8047ZM115.367 14.8047L115.094 13.8867C114.794 14.668 114.573 15.4427 114.43 16.2109C114.286 16.9792 114.215 17.7344 114.215 18.4766V19.0039C114.775 18.8086 115.309 18.5807 115.816 18.3203L116.129 18.2422C116.22 18.2682 116.311 18.2878 116.402 18.3008C116.493 18.3138 116.578 18.3203 116.656 18.3203C116.513 17.7604 116.331 17.194 116.109 16.6211C115.901 16.0352 115.654 15.4297 115.367 14.8047ZM153.258 13.9648L153.219 14.1992L152.984 14.2773C151.734 14.8242 150.641 15.4688 149.703 16.2109C148.766 16.9531 147.952 17.832 147.262 18.8477L147.066 19.043C146.585 19.2383 146.083 19.4987 145.562 19.8242C145.042 20.1497 144.521 20.5143 144 20.918C143.492 21.3216 143.004 21.7578 142.535 22.2266C142.079 22.6823 141.669 23.151 141.305 23.6328C141.279 23.737 141.272 23.8411 141.285 23.9453C141.298 24.0365 141.305 24.1341 141.305 24.2383C141.305 24.9284 141.357 25.6055 141.461 26.2695C141.565 26.9206 141.741 27.5781 141.988 28.2422L142.066 28.4375L141.988 28.5938C141.975 28.6198 141.904 28.737 141.773 28.9453C141.643 29.1406 141.428 29.3555 141.129 29.5898C140.829 29.8242 140.419 30.0391 139.898 30.2344C139.391 30.4297 138.753 30.5273 137.984 30.5273C137.216 30.5273 136.578 30.4232 136.07 30.2148C135.576 30.0065 135.178 29.7786 134.879 29.5312C134.592 29.2839 134.391 29.056 134.273 28.8477C134.156 28.6263 134.098 28.5026 134.098 28.4766L134.02 28.2812L134.098 28.125C134.397 27.3958 134.618 26.6536 134.762 25.8984C134.905 25.1432 134.977 24.362 134.977 23.5547C134.977 23.0078 134.944 22.4609 134.879 21.9141C134.827 21.3542 134.729 20.7812 134.586 20.1953V19.9609C134.742 19.3099 134.866 18.6719 134.957 18.0469C135.061 17.4219 135.113 16.8034 135.113 16.1914C135.113 15.4883 135.055 14.8112 134.938 14.1602C134.82 13.4961 134.664 12.832 134.469 12.168L134.43 11.9922L134.508 11.8359C135.068 10.4036 135.348 8.97786 135.348 7.55859C135.348 6.9987 135.302 6.4388 135.211 5.87891C135.133 5.31901 135.003 4.74609 134.82 4.16016L134.742 3.92578L134.898 3.71094C134.911 3.69792 134.964 3.64583 135.055 3.55469C135.146 3.45052 135.283 3.33333 135.465 3.20312C135.647 3.0599 135.882 2.92318 136.168 2.79297C136.454 2.64974 136.793 2.53255 137.184 2.44141C137.431 2.05078 137.711 1.74479 138.023 1.52344C138.336 1.28906 138.629 1.11328 138.902 0.996094C139.189 0.878906 139.43 0.800781 139.625 0.761719C139.833 0.722656 139.951 0.696615 139.977 0.683594H140.191L140.348 0.800781C140.764 1.17839 141.181 1.50391 141.598 1.77734C142.014 2.03776 142.444 2.27214 142.887 2.48047C143.342 2.67578 143.824 2.84505 144.332 2.98828C144.84 3.13151 145.393 3.25521 145.992 3.35938C146.057 3.35938 146.122 3.36589 146.188 3.37891C146.253 3.39193 146.318 3.39844 146.383 3.39844H146.539L146.715 3.51562C147.236 3.95833 147.73 4.34245 148.199 4.66797C148.681 4.98047 149.176 5.2474 149.684 5.46875C150.191 5.67708 150.725 5.83984 151.285 5.95703C151.845 6.07422 152.464 6.15234 153.141 6.19141H153.395L153.551 6.40625C153.551 6.43229 153.57 6.49089 153.609 6.58203C153.661 6.67318 153.714 6.80339 153.766 6.97266C153.818 7.12891 153.863 7.32422 153.902 7.55859C153.954 7.77995 153.98 8.03385 153.98 8.32031C153.98 8.58073 153.954 8.86068 153.902 9.16016C153.863 9.45964 153.785 9.77865 153.668 10.1172C153.473 10.6641 153.245 11.1198 152.984 11.4844C153.128 11.8229 153.219 12.1484 153.258 12.4609C153.31 12.7604 153.336 13.0208 153.336 13.2422C153.336 13.4375 153.323 13.6003 153.297 13.7305C153.271 13.8607 153.258 13.9388 153.258 13.9648ZM144.43 10.3906L144.176 10.2734C143.681 10 143.219 9.73958 142.789 9.49219C142.359 9.24479 141.943 9.02995 141.539 8.84766C141.539 9.32943 141.578 9.80469 141.656 10.2734C141.734 10.7292 141.845 11.1979 141.988 11.6797V11.9531C141.663 13.0599 141.461 14.1406 141.383 15.1953C141.604 14.974 141.812 14.7526 142.008 14.5312C142.216 14.2969 142.34 14.1081 142.379 13.9648L142.496 13.8086L142.672 13.7695C144.391 13.1185 145.868 12.168 147.105 10.918C146.689 10.7747 146.259 10.6641 145.816 10.5859C145.387 10.5078 144.924 10.4427 144.43 10.3906ZM173.805 14.1992L173.766 14.4336L173.531 14.5508C172.685 14.9154 171.91 15.3255 171.207 15.7812C170.517 16.224 169.892 16.7383 169.332 17.3242C169.553 17.9232 169.84 18.4635 170.191 18.9453C170.543 19.4141 171.005 19.9154 171.578 20.4492L171.695 20.6445C171.917 21.7643 172.281 22.7799 172.789 23.6914C173.31 24.6029 174.013 25.4362 174.898 26.1914L175.055 26.2891V26.4844C175.055 26.5104 175.042 26.6341 175.016 26.8555C175.003 27.0768 174.924 27.3503 174.781 27.6758C174.651 28.0013 174.43 28.3529 174.117 28.7305C173.805 29.1081 173.355 29.4661 172.77 29.8047C172.314 30.0651 171.884 30.2409 171.48 30.332C171.09 30.4362 170.745 30.4883 170.445 30.4883C170.172 30.4883 169.931 30.4622 169.723 30.4102C169.514 30.3581 169.339 30.2995 169.195 30.2344C169.052 30.1693 168.941 30.1107 168.863 30.0586C168.785 30.0065 168.74 29.974 168.727 29.9609L168.609 29.8828L168.57 29.6875C168.505 29.1797 168.401 28.7044 168.258 28.2617C168.128 27.819 167.958 27.3893 167.75 26.9727C167.542 26.556 167.294 26.1458 167.008 25.7422C166.734 25.3385 166.428 24.9284 166.09 24.5117C165.96 24.3815 165.868 24.3034 165.816 24.2773L165.699 24.1602V24.0039C165.595 23.3919 165.471 22.8516 165.328 22.3828C165.198 21.901 165.016 21.4518 164.781 21.0352C164.234 21.4388 163.707 21.888 163.199 22.3828C162.704 22.8776 162.255 23.3919 161.852 23.9258C161.826 24.0299 161.819 24.1276 161.832 24.2188C161.845 24.3099 161.852 24.4076 161.852 24.5117C161.852 25.2018 161.904 25.8789 162.008 26.543C162.112 27.194 162.288 27.8516 162.535 28.5156L162.613 28.6719L162.535 28.8867C162.522 28.9128 162.451 29.0299 162.32 29.2383C162.19 29.4336 161.975 29.6484 161.676 29.8828C161.376 30.1172 160.966 30.3255 160.445 30.5078C159.938 30.7031 159.299 30.8008 158.531 30.8008C157.763 30.8008 157.125 30.6966 156.617 30.4883C156.122 30.293 155.725 30.0716 155.426 29.8242C155.139 29.5638 154.938 29.3294 154.82 29.1211C154.703 28.9128 154.645 28.7956 154.645 28.7695L154.566 28.5547L154.645 28.3984C154.944 27.6693 155.165 26.9336 155.309 26.1914C155.452 25.4362 155.523 24.6549 155.523 23.8477C155.523 23.3008 155.491 22.7539 155.426 22.207C155.374 21.6471 155.276 21.0742 155.133 20.4883V20.2344C155.289 19.5964 155.413 18.9648 155.504 18.3398C155.608 17.7018 155.66 17.0833 155.66 16.4844C155.66 15.7812 155.602 15.0977 155.484 14.4336C155.367 13.7695 155.211 13.1055 155.016 12.4414L154.977 12.2852L155.055 12.1289C155.615 10.6966 155.895 9.26432 155.895 7.83203C155.895 7.24609 155.849 6.67318 155.758 6.11328C155.68 5.55339 155.549 4.98047 155.367 4.39453L155.289 4.16016L155.445 3.96484C155.458 3.95182 155.51 3.89974 155.602 3.80859C155.693 3.70443 155.829 3.58724 156.012 3.45703C156.194 3.3138 156.428 3.17708 156.715 3.04688C157.001 2.90365 157.34 2.79297 157.73 2.71484C157.978 2.32422 158.258 2.01823 158.57 1.79688C158.883 1.5625 159.176 1.38672 159.449 1.26953C159.736 1.15234 159.977 1.07422 160.172 1.03516C160.38 0.996094 160.497 0.970052 160.523 0.957031H160.738L160.895 1.07422C161.272 1.41276 161.689 1.73828 162.145 2.05078C162.6 2.36328 163.082 2.63672 163.59 2.87109C164.098 3.10547 164.632 3.29427 165.191 3.4375C165.751 3.56771 166.331 3.63281 166.93 3.63281L167.262 3.76953C167.783 4.22526 168.277 4.61589 168.746 4.94141C169.228 5.25391 169.723 5.51432 170.23 5.72266C170.738 5.93099 171.272 6.09375 171.832 6.21094C172.392 6.32812 173.01 6.40625 173.688 6.44531L173.941 6.48438L174.098 6.67969C174.098 6.70573 174.117 6.76432 174.156 6.85547C174.208 6.94661 174.26 7.07682 174.312 7.24609C174.365 7.40234 174.41 7.59766 174.449 7.83203C174.501 8.05339 174.527 8.30729 174.527 8.59375C174.527 8.85417 174.501 9.13411 174.449 9.43359C174.41 9.73307 174.332 10.0521 174.215 10.3906C174.033 10.9245 173.805 11.3672 173.531 11.7188C173.674 12.0573 173.766 12.3763 173.805 12.6758C173.857 12.9622 173.883 13.2161 173.883 13.4375C173.883 13.6589 173.87 13.8346 173.844 13.9648C173.818 14.0951 173.805 14.1732 173.805 14.1992ZM164.977 10.6445L164.723 10.5664C164.228 10.2799 163.766 10.013 163.336 9.76562C162.906 9.50521 162.49 9.27734 162.086 9.08203C162.086 9.5638 162.125 10.0456 162.203 10.5273C162.281 10.9961 162.392 11.4714 162.535 11.9531V12.2461C162.21 13.3398 162.008 14.4076 161.93 15.4492C162.138 15.2409 162.327 15.0326 162.496 14.8242C162.678 14.6159 162.822 14.4206 162.926 14.2383L163.219 14.0039C164.078 13.6784 164.879 13.2878 165.621 12.832C166.376 12.3633 167.066 11.8034 167.691 11.1523C166.884 10.8919 165.979 10.7227 164.977 10.6445ZM190.582 16.1914C190.582 16.7773 190.504 17.2917 190.348 17.7344C190.191 18.1641 190.016 18.5286 189.82 18.8281C189.625 19.1276 189.443 19.3555 189.273 19.5117C189.117 19.668 189.033 19.7526 189.02 19.7656L188.824 19.9219L188.551 19.8438C187.822 19.5964 187.177 19.4141 186.617 19.2969C186.07 19.1797 185.523 19.1211 184.977 19.1211C184.573 19.1211 184.176 19.1602 183.785 19.2383L183.902 19.4727L183.98 19.6484L183.902 19.8047C183.59 20.6901 183.375 21.569 183.258 22.4414C183.466 22.3893 183.701 22.3438 183.961 22.3047C184.221 22.2656 184.469 22.2331 184.703 22.207C184.938 22.181 185.133 22.1615 185.289 22.1484C185.445 22.1354 185.53 22.1289 185.543 22.1289L185.699 22.0703L185.855 22.168C186.598 22.4674 187.229 22.6953 187.75 22.8516C188.271 23.0078 188.798 23.0859 189.332 23.0859C189.697 23.0859 190.094 23.0469 190.523 22.9688C190.953 22.8906 191.441 22.7799 191.988 22.6367L192.223 22.5586L192.418 22.7148C192.431 22.7409 192.503 22.8255 192.633 22.9688C192.776 23.099 192.926 23.3073 193.082 23.5938C193.238 23.8672 193.382 24.2188 193.512 24.6484C193.642 25.0651 193.707 25.5664 193.707 26.1523C193.694 26.7383 193.603 27.2461 193.434 27.6758C193.264 28.1055 193.082 28.4701 192.887 28.7695C192.691 29.056 192.509 29.2773 192.34 29.4336C192.171 29.5898 192.079 29.6745 192.066 29.6875L191.812 29.8047L191.578 29.7266C190.81 29.4401 190.172 29.2383 189.664 29.1211C189.156 28.9909 188.661 28.9258 188.18 28.9258C187.841 28.9258 187.49 28.9583 187.125 29.0234C186.76 29.0755 186.337 29.1602 185.855 29.2773H185.582C185.217 29.2122 184.853 29.1406 184.488 29.0625C184.137 28.9714 183.779 28.8867 183.414 28.8086C183.284 28.9518 183.115 29.1081 182.906 29.2773C182.711 29.4336 182.464 29.5768 182.164 29.707C181.878 29.8372 181.539 29.9414 181.148 30.0195C180.771 30.1107 180.341 30.1562 179.859 30.1562C179.091 30.1562 178.453 30.0521 177.945 29.8438C177.451 29.6354 177.053 29.4076 176.754 29.1602C176.467 28.8997 176.266 28.6654 176.148 28.457C176.031 28.2357 175.973 28.112 175.973 28.0859L175.895 27.9297L175.973 27.7148C176.272 26.9987 176.493 26.263 176.637 25.5078C176.78 24.7526 176.852 23.9844 176.852 23.2031C176.852 22.6562 176.819 22.1029 176.754 21.543C176.702 20.9831 176.604 20.4036 176.461 19.8047V19.5508C176.617 18.9128 176.741 18.2878 176.832 17.6758C176.936 17.0508 176.988 16.4258 176.988 15.8008C176.988 15.1107 176.93 14.4336 176.812 13.7695C176.695 13.1055 176.539 12.4479 176.344 11.7969L176.305 11.6016L176.383 11.4453C176.669 10.7422 176.878 10.0391 177.008 9.33594C177.151 8.61979 177.223 7.91016 177.223 7.20703C177.223 6.63411 177.177 6.06771 177.086 5.50781C177.008 4.9349 176.878 4.35547 176.695 3.76953L176.617 3.51562L176.773 3.32031C176.786 3.30729 176.865 3.22917 177.008 3.08594C177.151 2.92969 177.366 2.76693 177.652 2.59766C177.952 2.41536 178.323 2.25911 178.766 2.12891C179.208 1.98568 179.736 1.91406 180.348 1.91406C181.051 1.91406 181.65 2.01172 182.145 2.20703C182.639 2.40234 183.036 2.61068 183.336 2.83203C183.714 2.79297 184.111 2.73438 184.527 2.65625C184.944 2.57812 185.361 2.46745 185.777 2.32422L185.934 2.24609L186.148 2.28516C186.773 2.48047 187.314 2.63021 187.77 2.73438C188.238 2.82552 188.681 2.87109 189.098 2.87109C189.553 2.87109 190.029 2.8125 190.523 2.69531C191.018 2.57812 191.598 2.40234 192.262 2.16797L192.496 2.07031L192.711 2.20703C192.724 2.22005 192.809 2.29167 192.965 2.42188C193.121 2.55208 193.29 2.75391 193.473 3.02734C193.655 3.28776 193.824 3.6263 193.98 4.04297C194.15 4.44661 194.254 4.94141 194.293 5.52734V5.87891C194.293 6.39974 194.228 6.86198 194.098 7.26562C193.967 7.66927 193.818 8.01432 193.648 8.30078C193.492 8.57422 193.342 8.78255 193.199 8.92578C193.069 9.06901 192.997 9.14714 192.984 9.16016L192.789 9.31641L192.496 9.23828C191.871 9.09505 191.337 8.99089 190.895 8.92578C190.452 8.84766 190.042 8.80859 189.664 8.80859C189.221 8.80859 188.779 8.86068 188.336 8.96484C187.906 9.05599 187.385 9.19922 186.773 9.39453L186.5 9.43359C185.953 9.32943 185.426 9.2513 184.918 9.19922C184.423 9.14714 183.922 9.12109 183.414 9.12109C183.453 9.48568 183.505 9.85026 183.57 10.2148C183.648 10.5664 183.746 10.9245 183.863 11.2891V11.5625C183.785 11.7969 183.72 12.0312 183.668 12.2656C183.629 12.487 183.59 12.7214 183.551 12.9688C183.928 13.0729 184.28 13.1445 184.605 13.1836C184.944 13.2227 185.296 13.2422 185.66 13.2422C186.142 13.2422 186.63 13.2031 187.125 13.125C187.62 13.0339 188.16 12.8971 188.746 12.7148L188.98 12.6367L189.176 12.793C189.189 12.806 189.267 12.8841 189.41 13.0273C189.566 13.1576 189.729 13.3659 189.898 13.6523C190.081 13.9258 190.237 14.2773 190.367 14.707C190.51 15.1237 190.582 15.6185 190.582 16.1914ZM213.863 27.4023L213.629 27.7148C213.642 27.7018 213.551 27.7995 213.355 28.0078C213.173 28.2161 212.88 28.4505 212.477 28.7109C212.086 28.9714 211.591 29.2122 210.992 29.4336C210.393 29.6549 209.697 29.7656 208.902 29.7656C208.303 29.7656 207.822 29.707 207.457 29.5898C207.105 29.4596 206.91 29.3815 206.871 29.3555L206.598 29.2383L206.637 28.9258C206.637 27.7799 206.52 26.6667 206.285 25.5859C206.051 24.5052 205.66 23.4049 205.113 22.2852L205.074 22.0703C205.035 21.0547 204.872 20.0391 204.586 19.0234C204.312 17.9948 203.915 16.9466 203.395 15.8789C203.329 16.2435 203.284 16.6016 203.258 16.9531C203.245 17.2917 203.238 17.6432 203.238 18.0078C203.238 18.3464 203.245 18.6784 203.258 19.0039C203.284 19.3294 203.329 19.6615 203.395 20L203.434 20.1562L203.355 20.3125C202.366 22.1224 201.871 24.0169 201.871 25.9961C201.871 26.3607 201.884 26.7318 201.91 27.1094C201.936 27.487 201.988 27.8646 202.066 28.2422L202.105 28.4375L201.988 28.5938C201.975 28.6198 201.91 28.7044 201.793 28.8477C201.676 28.9909 201.487 29.1536 201.227 29.3359C200.979 29.5052 200.654 29.6615 200.25 29.8047C199.846 29.9349 199.358 30 198.785 30C198.29 30 197.848 29.9609 197.457 29.8828C197.066 29.8047 196.715 29.7005 196.402 29.5703C196.103 29.4401 195.836 29.2969 195.602 29.1406C195.38 28.9714 195.191 28.8021 195.035 28.6328C194.658 28.2292 194.391 27.7669 194.234 27.2461L194.195 27.0703L194.273 26.9141C195.445 24.987 196.031 22.7995 196.031 20.3516C196.031 20.1562 196.031 19.9609 196.031 19.7656C196.031 19.5573 196.018 19.3555 195.992 19.1602L196.031 18.9258C196.448 17.9492 196.767 16.9857 196.988 16.0352C197.21 15.0846 197.32 14.1276 197.32 13.1641C197.32 12.8385 197.301 12.513 197.262 12.1875C197.223 11.849 197.184 11.5169 197.145 11.1914L197.105 11.0352L197.184 10.8789C198.277 9.04297 198.824 7.10938 198.824 5.07812C198.824 4.54427 198.785 3.97135 198.707 3.35938L198.668 3.08594L198.863 2.92969C198.876 2.91667 198.941 2.86458 199.059 2.77344C199.189 2.66927 199.371 2.5651 199.605 2.46094C199.84 2.35677 200.126 2.25911 200.465 2.16797C200.816 2.07682 201.22 2.03125 201.676 2.03125C202.444 2.03125 203.102 2.14193 203.648 2.36328C204.195 2.58464 204.645 2.83203 204.996 3.10547C205.348 3.37891 205.602 3.63281 205.758 3.86719C205.927 4.10156 206.018 4.22526 206.031 4.23828L206.188 4.47266L206.07 4.72656L205.836 5.11719C206.096 5.18229 206.305 5.2474 206.461 5.3125C206.63 5.36458 206.728 5.39062 206.754 5.39062L206.988 5.56641V5.83984C206.988 7.16797 207.151 8.41797 207.477 9.58984C207.802 10.7617 208.31 11.901 209 13.0078L209.078 13.2422C209.078 14.1016 209.156 14.9284 209.312 15.7227C209.508 15.0716 209.658 14.4206 209.762 13.7695C209.866 13.1185 209.918 12.4609 209.918 11.7969C209.918 11.6406 209.918 11.4844 209.918 11.3281C209.918 11.1589 209.905 10.9831 209.879 10.8008L209.84 10.6445L209.957 10.4883C210.66 9.45964 211.181 8.40495 211.52 7.32422C211.858 6.23047 212.027 5.07161 212.027 3.84766V3.08594L211.988 2.83203L212.184 2.67578C212.197 2.66276 212.255 2.6237 212.359 2.55859C212.477 2.48047 212.639 2.39583 212.848 2.30469C213.056 2.21354 213.31 2.13542 213.609 2.07031C213.909 1.99219 214.247 1.95312 214.625 1.95312C215.471 1.95312 216.188 2.08333 216.773 2.34375C217.359 2.60417 217.835 2.89714 218.199 3.22266C218.577 3.53516 218.844 3.82812 219 4.10156C219.169 4.36198 219.26 4.4987 219.273 4.51172L219.391 4.76562L219.234 5L219.039 5.27344C219.299 5.3776 219.495 5.47526 219.625 5.56641C219.768 5.64453 219.853 5.68359 219.879 5.68359L220.113 5.87891L220.074 6.15234C220.035 6.47786 219.996 6.80339 219.957 7.12891C219.931 7.44141 219.918 7.76042 219.918 8.08594C219.918 9.02344 220.022 9.94792 220.23 10.8594C220.439 11.7708 220.745 12.6562 221.148 13.5156L221.188 13.8086C221.148 14.082 221.122 14.362 221.109 14.6484C221.109 14.9219 221.109 15.2018 221.109 15.4883C221.109 17.5065 221.526 19.3685 222.359 21.0742L222.438 21.1523V21.3281C222.438 21.4453 222.431 21.556 222.418 21.6602C222.405 21.7643 222.398 21.875 222.398 21.9922C222.398 24.1276 222.932 26.1719 224 28.125L224.156 28.4375L223.902 28.6719C223.915 28.6589 223.824 28.7305 223.629 28.8867C223.447 29.043 223.173 29.2188 222.809 29.4141C222.457 29.6094 222.014 29.7917 221.48 29.9609C220.947 30.1172 220.341 30.1953 219.664 30.1953C219.26 30.1953 218.896 30.1562 218.57 30.0781C218.245 30.013 217.965 29.9414 217.73 29.8633C217.509 29.7721 217.333 29.6875 217.203 29.6094C217.073 29.5312 217.001 29.4857 216.988 29.4727L216.754 29.3164L216.793 29.0039C216.858 28.6654 216.897 28.3268 216.91 27.9883C216.936 27.6367 216.949 27.2917 216.949 26.9531C216.949 25.4427 216.669 23.8737 216.109 22.2461V22.0312C216.135 21.849 216.148 21.6667 216.148 21.4844C216.148 21.2891 216.148 21.1003 216.148 20.918C216.148 19.5378 215.947 18.138 215.543 16.7188C215.478 17.0573 215.432 17.4023 215.406 17.7539C215.393 18.0924 215.387 18.431 215.387 18.7695C215.387 18.9909 215.393 19.2057 215.406 19.4141C215.419 19.6094 215.439 19.8177 215.465 20.0391L215.387 20.3516C214.085 22.3568 213.434 24.5182 213.434 26.8359C213.46 26.901 213.486 26.9531 213.512 26.9922C213.551 27.0312 213.59 27.0768 213.629 27.1289L213.863 27.4023ZM233.238 3.67188L233.121 3.92578C232.887 4.64193 232.704 5.34505 232.574 6.03516C232.457 6.71224 232.398 7.39583 232.398 8.08594C232.398 8.63281 232.431 9.16667 232.496 9.6875C232.574 10.1953 232.691 10.7096 232.848 11.2305V11.5234C232.444 12.9427 232.242 14.3034 232.242 15.6055C232.242 16.2695 232.294 16.9206 232.398 17.5586C232.503 18.1836 232.665 18.8086 232.887 19.4336L232.965 19.6094L232.887 19.7656C232.639 20.4297 232.457 21.1003 232.34 21.7773C232.223 22.4414 232.164 23.1185 232.164 23.8086C232.164 24.4857 232.216 25.1562 232.32 25.8203C232.424 26.4714 232.6 27.1289 232.848 27.793L232.926 28.0078L232.848 28.1641C232.835 28.1901 232.763 28.3073 232.633 28.5156C232.503 28.7109 232.288 28.9258 231.988 29.1602C231.689 29.3945 231.279 29.6094 230.758 29.8047C230.25 29.987 229.612 30.0781 228.844 30.0781C228.076 30.0781 227.438 29.9805 226.93 29.7852C226.435 29.5768 226.038 29.349 225.738 29.1016C225.452 28.8411 225.25 28.6068 225.133 28.3984C225.016 28.1901 224.957 28.0729 224.957 28.0469L224.879 27.832L224.957 27.6758C225.257 26.9466 225.478 26.2109 225.621 25.4688C225.764 24.7135 225.836 23.9323 225.836 23.125C225.836 22.5781 225.803 22.0312 225.738 21.4844C225.686 20.9245 225.589 20.3516 225.445 19.7656V19.5117C225.602 18.8737 225.725 18.2487 225.816 17.6367C225.921 17.0117 225.973 16.3867 225.973 15.7617C225.973 15.0586 225.914 14.375 225.797 13.7109C225.68 13.0469 225.523 12.3828 225.328 11.7188L225.289 11.5625L225.367 11.4062C225.927 9.97396 226.207 8.54818 226.207 7.12891C226.207 6.55599 226.161 5.98958 226.07 5.42969C225.992 4.86979 225.862 4.29688 225.68 3.71094L225.602 3.47656L225.758 3.28125C225.771 3.26823 225.849 3.1901 225.992 3.04688C226.135 2.89062 226.35 2.72786 226.637 2.55859C226.936 2.3763 227.307 2.22005 227.75 2.08984C228.193 1.94661 228.72 1.875 229.332 1.875C229.957 1.875 230.497 1.95964 230.953 2.12891C231.409 2.28516 231.786 2.46094 232.086 2.65625C232.398 2.85156 232.633 3.03385 232.789 3.20312C232.945 3.3724 233.03 3.46354 233.043 3.47656L233.238 3.67188ZM244.82 4.08203L244.703 4.31641C244.339 5.16276 244.072 5.99609 243.902 6.81641C243.746 7.6237 243.668 8.43099 243.668 9.23828C243.668 10.0195 243.746 10.8073 243.902 11.6016V11.875C243.603 12.7344 243.375 13.5286 243.219 14.2578C243.062 14.987 242.984 15.7031 242.984 16.4062C242.984 16.862 243.017 17.3177 243.082 17.7734C243.147 18.2292 243.251 18.7044 243.395 19.1992V19.5117C243.03 20.293 242.763 21.0026 242.594 21.6406C242.438 22.2786 242.359 22.9297 242.359 23.5938C242.776 23.4896 243.18 23.3659 243.57 23.2227C243.961 23.0664 244.41 22.8971 244.918 22.7148L245.23 22.6367C245.556 22.6758 245.862 22.7148 246.148 22.7539C246.448 22.7799 246.741 22.793 247.027 22.793C247.9 22.793 248.74 22.6758 249.547 22.4414C249.482 22.0638 249.41 21.6797 249.332 21.2891C249.254 20.8854 249.156 20.4818 249.039 20.0781L248.98 19.8438C249.085 19.362 249.156 18.8867 249.195 18.418C249.247 17.9362 249.273 17.4479 249.273 16.9531C249.273 16.1068 249.195 15.2799 249.039 14.4727C248.883 13.6523 248.655 12.8516 248.355 12.0703V11.7578C248.551 11.1589 248.688 10.5664 248.766 9.98047C248.857 9.39453 248.902 8.80208 248.902 8.20312C248.902 7.51302 248.837 6.82943 248.707 6.15234C248.59 5.47526 248.401 4.78516 248.141 4.08203L248.023 3.84766L248.199 3.59375C248.212 3.58073 248.29 3.48958 248.434 3.32031C248.577 3.15104 248.805 2.96875 249.117 2.77344C249.43 2.57812 249.827 2.40234 250.309 2.24609C250.803 2.07682 251.402 1.99219 252.105 1.99219C252.652 1.99219 253.128 2.05729 253.531 2.1875C253.948 2.31771 254.299 2.46094 254.586 2.61719C254.872 2.77344 255.087 2.92318 255.23 3.06641C255.374 3.19661 255.452 3.26823 255.465 3.28125L255.66 3.47656L255.582 3.76953C255.27 4.92839 255.113 6.0612 255.113 7.16797C255.113 8.52214 255.354 9.82422 255.836 11.0742V11.3672C255.589 12.4479 255.465 13.4961 255.465 14.5117C255.465 16.1523 255.784 17.7279 256.422 19.2383L256.5 19.3945L256.461 19.5508C256.148 20.6836 255.992 21.7904 255.992 22.8711C255.992 23.6784 256.07 24.4727 256.227 25.2539C256.396 26.0352 256.65 26.8164 256.988 27.5977L257.066 27.7539L256.988 27.9688C256.975 27.9818 256.904 28.1055 256.773 28.3398C256.656 28.5612 256.435 28.8086 256.109 29.082C255.797 29.3555 255.367 29.6029 254.82 29.8242C254.273 30.0456 253.57 30.1562 252.711 30.1562C252.177 30.1562 251.715 30.1042 251.324 30C250.947 29.8958 250.621 29.7656 250.348 29.6094C250.074 29.4531 249.853 29.2904 249.684 29.1211C249.527 28.9518 249.404 28.8021 249.312 28.6719C248.909 28.8021 248.512 28.9518 248.121 29.1211C247.743 29.2773 247.353 29.4661 246.949 29.6875L246.715 29.7266C246.051 29.7266 245.413 29.7396 244.801 29.7656C244.202 29.7786 243.616 29.8307 243.043 29.9219C242.483 30 241.923 30.1302 241.363 30.3125C240.816 30.5078 240.263 30.7747 239.703 31.1133L239.547 31.2305L239.352 31.1914C239.273 31.1523 239.13 31.0938 238.922 31.0156C238.727 30.9505 238.499 30.8138 238.238 30.6055C237.991 30.4102 237.73 30.1237 237.457 29.7461C237.184 29.3555 236.936 28.8281 236.715 28.1641C236.35 27.9948 236.051 27.806 235.816 27.5977C235.582 27.3763 235.393 27.168 235.25 26.9727C235.12 26.7773 235.022 26.6146 234.957 26.4844C234.905 26.3411 234.879 26.2565 234.879 26.2305L234.82 26.0352L234.918 25.8789C235.335 25.0456 235.641 24.2773 235.836 23.5742C236.044 22.8581 236.148 22.0768 236.148 21.2305C236.148 20.8919 236.129 20.5404 236.09 20.1758C236.064 19.8112 236.018 19.4206 235.953 19.0039V18.7695C236.227 17.9883 236.435 17.2461 236.578 16.543C236.721 15.8398 236.793 15.1367 236.793 14.4336C236.793 13.9779 236.754 13.5156 236.676 13.0469C236.611 12.5781 236.513 12.0833 236.383 11.5625L236.344 11.4062L236.422 11.2305C236.826 10.4102 237.125 9.58984 237.32 8.76953C237.529 7.94922 237.633 7.10286 237.633 6.23047C237.633 5.38411 237.522 4.50521 237.301 3.59375L237.223 3.32031L237.438 3.16406C237.451 3.15104 237.522 3.07943 237.652 2.94922C237.783 2.81901 237.978 2.6888 238.238 2.55859C238.499 2.41536 238.824 2.28516 239.215 2.16797C239.618 2.05078 240.087 1.99219 240.621 1.99219C241.298 1.99219 241.891 2.08984 242.398 2.28516C242.906 2.46745 243.323 2.67578 243.648 2.91016C243.987 3.13151 244.234 3.33984 244.391 3.53516C244.56 3.73047 244.651 3.83464 244.664 3.84766L244.82 4.08203ZM277.223 27.4023L276.988 27.7148C277.001 27.7018 276.91 27.7995 276.715 28.0078C276.533 28.2161 276.24 28.4505 275.836 28.7109C275.445 28.9714 274.951 29.2122 274.352 29.4336C273.753 29.6549 273.056 29.7656 272.262 29.7656C271.663 29.7656 271.181 29.707 270.816 29.5898C270.465 29.4596 270.27 29.3815 270.23 29.3555L269.957 29.2383L269.996 28.9258C269.996 27.7799 269.879 26.6667 269.645 25.5859C269.41 24.5052 269.02 23.4049 268.473 22.2852L268.434 22.0703C268.395 21.0547 268.232 20.0391 267.945 19.0234C267.672 17.9948 267.275 16.9466 266.754 15.8789C266.689 16.2435 266.643 16.6016 266.617 16.9531C266.604 17.2917 266.598 17.6432 266.598 18.0078C266.598 18.3464 266.604 18.6784 266.617 19.0039C266.643 19.3294 266.689 19.6615 266.754 20L266.793 20.1562L266.715 20.3125C265.725 22.1224 265.23 24.0169 265.23 25.9961C265.23 26.3607 265.243 26.7318 265.27 27.1094C265.296 27.487 265.348 27.8646 265.426 28.2422L265.465 28.4375L265.348 28.5938C265.335 28.6198 265.27 28.7044 265.152 28.8477C265.035 28.9909 264.846 29.1536 264.586 29.3359C264.339 29.5052 264.013 29.6615 263.609 29.8047C263.206 29.9349 262.717 30 262.145 30C261.65 30 261.207 29.9609 260.816 29.8828C260.426 29.8047 260.074 29.7005 259.762 29.5703C259.462 29.4401 259.195 29.2969 258.961 29.1406C258.74 28.9714 258.551 28.8021 258.395 28.6328C258.017 28.2292 257.75 27.7669 257.594 27.2461L257.555 27.0703L257.633 26.9141C258.805 24.987 259.391 22.7995 259.391 20.3516C259.391 20.1562 259.391 19.9609 259.391 19.7656C259.391 19.5573 259.378 19.3555 259.352 19.1602L259.391 18.9258C259.807 17.9492 260.126 16.9857 260.348 16.0352C260.569 15.0846 260.68 14.1276 260.68 13.1641C260.68 12.8385 260.66 12.513 260.621 12.1875C260.582 11.849 260.543 11.5169 260.504 11.1914L260.465 11.0352L260.543 10.8789C261.637 9.04297 262.184 7.10938 262.184 5.07812C262.184 4.54427 262.145 3.97135 262.066 3.35938L262.027 3.08594L262.223 2.92969C262.236 2.91667 262.301 2.86458 262.418 2.77344C262.548 2.66927 262.73 2.5651 262.965 2.46094C263.199 2.35677 263.486 2.25911 263.824 2.16797C264.176 2.07682 264.579 2.03125 265.035 2.03125C265.803 2.03125 266.461 2.14193 267.008 2.36328C267.555 2.58464 268.004 2.83203 268.355 3.10547C268.707 3.37891 268.961 3.63281 269.117 3.86719C269.286 4.10156 269.378 4.22526 269.391 4.23828L269.547 4.47266L269.43 4.72656L269.195 5.11719C269.456 5.18229 269.664 5.2474 269.82 5.3125C269.99 5.36458 270.087 5.39062 270.113 5.39062L270.348 5.56641V5.83984C270.348 7.16797 270.51 8.41797 270.836 9.58984C271.161 10.7617 271.669 11.901 272.359 13.0078L272.438 13.2422C272.438 14.1016 272.516 14.9284 272.672 15.7227C272.867 15.0716 273.017 14.4206 273.121 13.7695C273.225 13.1185 273.277 12.4609 273.277 11.7969C273.277 11.6406 273.277 11.4844 273.277 11.3281C273.277 11.1589 273.264 10.9831 273.238 10.8008L273.199 10.6445L273.316 10.4883C274.02 9.45964 274.54 8.40495 274.879 7.32422C275.217 6.23047 275.387 5.07161 275.387 3.84766V3.08594L275.348 2.83203L275.543 2.67578C275.556 2.66276 275.615 2.6237 275.719 2.55859C275.836 2.48047 275.999 2.39583 276.207 2.30469C276.415 2.21354 276.669 2.13542 276.969 2.07031C277.268 1.99219 277.607 1.95312 277.984 1.95312C278.831 1.95312 279.547 2.08333 280.133 2.34375C280.719 2.60417 281.194 2.89714 281.559 3.22266C281.936 3.53516 282.203 3.82812 282.359 4.10156C282.529 4.36198 282.62 4.4987 282.633 4.51172L282.75 4.76562L282.594 5L282.398 5.27344C282.659 5.3776 282.854 5.47526 282.984 5.56641C283.128 5.64453 283.212 5.68359 283.238 5.68359L283.473 5.87891L283.434 6.15234C283.395 6.47786 283.355 6.80339 283.316 7.12891C283.29 7.44141 283.277 7.76042 283.277 8.08594C283.277 9.02344 283.382 9.94792 283.59 10.8594C283.798 11.7708 284.104 12.6562 284.508 13.5156L284.547 13.8086C284.508 14.082 284.482 14.362 284.469 14.6484C284.469 14.9219 284.469 15.2018 284.469 15.4883C284.469 17.5065 284.885 19.3685 285.719 21.0742L285.797 21.1523V21.3281C285.797 21.4453 285.79 21.556 285.777 21.6602C285.764 21.7643 285.758 21.875 285.758 21.9922C285.758 24.1276 286.292 26.1719 287.359 28.125L287.516 28.4375L287.262 28.6719C287.275 28.6589 287.184 28.7305 286.988 28.8867C286.806 29.043 286.533 29.2188 286.168 29.4141C285.816 29.6094 285.374 29.7917 284.84 29.9609C284.306 30.1172 283.701 30.1953 283.023 30.1953C282.62 30.1953 282.255 30.1562 281.93 30.0781C281.604 30.013 281.324 29.9414 281.09 29.8633C280.868 29.7721 280.693 29.6875 280.562 29.6094C280.432 29.5312 280.361 29.4857 280.348 29.4727L280.113 29.3164L280.152 29.0039C280.217 28.6654 280.257 28.3268 280.27 27.9883C280.296 27.6367 280.309 27.2917 280.309 26.9531C280.309 25.4427 280.029 23.8737 279.469 22.2461V22.0312C279.495 21.849 279.508 21.6667 279.508 21.4844C279.508 21.2891 279.508 21.1003 279.508 20.918C279.508 19.5378 279.306 18.138 278.902 16.7188C278.837 17.0573 278.792 17.4023 278.766 17.7539C278.753 18.0924 278.746 18.431 278.746 18.7695C278.746 18.9909 278.753 19.2057 278.766 19.4141C278.779 19.6094 278.798 19.8177 278.824 20.0391L278.746 20.3516C277.444 22.3568 276.793 24.5182 276.793 26.8359C276.819 26.901 276.845 26.9531 276.871 26.9922C276.91 27.0312 276.949 27.0768 276.988 27.1289L277.223 27.4023Z" fill="#593C6C"/>
</svg>
