<svg width="40" height="40" viewBox="0 0 40 40" fill="none" xmlns="http://www.w3.org/2000/svg">
<path d="M19.9999 33.3334C23.5361 33.3334 26.9275 31.9286 29.428 29.4281C31.9285 26.9276 33.3333 23.5363 33.3333 20C33.3333 16.4638 31.9285 13.0724 29.428 10.572C26.9275 8.07147 23.5361 6.66671 19.9999 6.66671C16.4637 6.66671 13.0723 8.07147 10.5718 10.572C8.07134 13.0724 6.66659 16.4638 6.66659 20C6.66659 23.5363 8.07134 26.9276 10.5718 29.4281C13.0723 31.9286 16.4637 33.3334 19.9999 33.3334V33.3334ZM19.9999 36.6667C10.7949 36.6667 3.33325 29.205 3.33325 20C3.33325 10.795 10.7949 3.33337 19.9999 3.33337C29.2049 3.33337 36.6666 10.795 36.6666 20C36.6666 29.205 29.2049 36.6667 19.9999 36.6667ZM14.8166 21.95L10.6533 20.6517C9.75325 20.3767 9.74825 19.7567 10.8549 19.3117L27.0766 13.045C28.0183 12.6617 28.5516 13.1467 28.2466 14.3617L25.4849 27.395C25.2916 28.3234 24.7333 28.545 23.9583 28.1167L19.7066 24.97L17.7249 26.8834C17.5216 27.08 17.3566 27.2484 17.0433 27.29C16.7316 27.3334 16.4749 27.24 16.2866 26.7234L14.8366 21.9384L14.8166 21.9517V21.95Z" fill="white"/>
</svg>
