<svg width="40" height="40" viewBox="0 0 40 40" fill="none" xmlns="http://www.w3.org/2000/svg">
<path d="M35 11.6667H33.3333C31.5652 11.6667 29.8695 10.9643 28.6193 9.71405C27.369 8.4638 26.6667 6.76811 26.6667 5H20V24.1667C20 24.8769 19.8184 25.5753 19.4726 26.1957C19.1267 26.816 18.628 27.3377 18.0239 27.711C17.4197 28.0844 16.7301 28.2972 16.0206 28.3291C15.3111 28.361 14.6052 28.2111 13.9699 27.8934C13.3347 27.5758 12.7912 27.1011 12.391 26.5143C11.9908 25.9275 11.7473 25.2482 11.6835 24.5409C11.6197 23.8335 11.7378 23.1216 12.0266 22.4727C12.3153 21.8238 12.7651 21.2595 13.3333 20.8333V13.6333C11.3526 14.1031 9.54437 15.1214 8.11579 16.5716C6.68721 18.0218 5.69612 19.8451 5.25611 21.8326C4.8161 23.8201 4.94497 25.8914 5.62797 27.809C6.31096 29.7267 7.52044 31.4131 9.11777 32.675C10.7151 33.9369 12.6356 34.7232 14.6593 34.9438C16.6829 35.1644 18.7278 34.8104 20.5595 33.9223C22.3912 33.0342 23.9357 31.648 25.0158 29.9226C26.0959 28.1972 26.6681 26.2023 26.6667 24.1667V16.5333C28.6923 17.7084 30.9916 18.3292 33.3333 18.3333H35V11.6667Z" stroke="white" stroke-width="2" stroke-linecap="round" stroke-linejoin="round"/>
</svg>
