<svg width="40" height="40" viewBox="0 0 40 40" fill="none" xmlns="http://www.w3.org/2000/svg">
<path d="M33.254 13.2001C33.2743 13.494 33.2743 13.7878 33.2743 14.0844C33.2743 23.1209 26.3951 33.5427 13.816 33.5427V33.5373C10.1001 33.5427 6.46143 32.4783 3.33325 30.4714C3.87357 30.5364 4.4166 30.5689 4.96099 30.5703C8.04041 30.573 11.0318 29.5398 13.4545 27.6371C10.5281 27.5816 7.96187 25.6736 7.06539 22.888C8.09051 23.0857 9.14678 23.0451 10.1529 22.7702C6.96248 22.1256 4.66713 19.3224 4.66713 16.0669C4.66713 16.0372 4.66713 16.0087 4.66713 15.9803C5.61777 16.5098 6.68216 16.8036 7.77093 16.8361C4.76598 14.8279 3.83972 10.8303 5.65433 7.70484C9.12647 11.9773 14.2494 14.5746 19.7487 14.8495C19.1976 12.4743 19.9505 9.98529 21.7272 8.31558C24.4816 5.72637 28.8137 5.85908 31.4029 8.61214C32.9344 8.31016 34.4024 7.74817 35.7457 6.95191C35.2352 8.53495 34.1668 9.87966 32.7394 10.7342C34.095 10.5744 35.4194 10.2114 36.6666 9.65758C35.7485 11.0334 34.592 12.2319 33.254 13.2001Z" fill="white"/>
</svg>
